<svg width="1000" height="1000" viewBox="0 0 1000 1000" fill="none" xmlns="http://www.w3.org/2000/svg">
<path d="M999.961 499.844C999.961 493.074 994.397 487.626 987.626 487.626H524.63C517.821 487.626 512.296 482.101 512.296 475.292V50.6226C512.296 43.035 519.105 37.2763 526.576 38.4436C569.455 45.214 608.521 68.1323 636.42 103.735C699.377 184.008 737.276 286.265 749.572 408.483C750.195 414.786 755.486 419.65 761.829 419.65H978.677C986.42 419.65 992.257 412.568 990.778 404.981C946.381 174.553 743.191 0 500 0C224.28 0 0 224.28 0 500C0 500.039 0 500.078 0 500.117C0 506.887 5.5642 512.335 12.3346 512.335H475.331C482.14 512.335 487.665 517.86 487.665 524.669V949.377C487.665 956.965 480.856 962.724 473.385 961.556C430.506 954.786 391.44 931.829 363.541 896.265C300.584 815.953 262.685 713.735 250.389 591.518C249.767 585.214 244.475 580.35 238.132 580.35H21.2062C13.463 580.35 7.62646 587.432 9.10506 595.019C53.6187 825.447 256.77 1000 500 1000C775.681 1000 1000 775.72 1000 500C1000 499.961 1000 499.922 1000 499.883L999.961 499.844ZM947.821 394.942H783.969C777.743 394.942 772.529 390.272 771.751 384.125C756.77 266.77 717.977 167.665 655.914 88.5214C650.817 82.0233 645.409 75.9144 639.689 70.1556C630.545 60.9728 640.195 45.7198 652.451 49.8833C802.568 100.856 919.183 224.942 959.728 379.533C961.79 387.315 955.837 394.981 947.782 394.981L947.821 394.942ZM52.1401 605.058H215.992C222.218 605.058 227.432 609.728 228.21 615.875C243.191 733.191 281.984 832.335 344.047 911.479C349.144 917.977 354.553 924.086 360.272 929.844C369.416 939.027 359.767 954.28 347.51 950.117C197.393 899.144 80.7782 775.058 40.2335 620.467C38.1712 612.685 44.1245 605.019 52.179 605.019L52.1401 605.058ZM209.144 487.626H37.7043C30.6226 487.626 25.0195 481.673 25.3696 474.591C35.8366 276.926 167.626 110.934 347.471 49.8444C359.728 45.6809 369.416 60.9339 360.272 70.1167C354.553 75.8366 349.144 81.9844 344.047 88.4825C266.459 187.471 225.253 317.588 221.44 475.525C221.284 482.218 215.837 487.626 209.144 487.626ZM475.292 487.626H258.482C251.595 487.626 245.992 481.946 246.148 475.058C250 323.035 289.416 198.171 363.463 103.696C391.362 68.0934 430.428 45.1362 473.307 38.4047C480.817 37.2374 487.588 42.9961 487.588 50.5837V475.292C487.588 482.101 482.062 487.626 475.253 487.626H475.292ZM524.669 512.335H741.479C748.366 512.335 753.969 518.016 753.813 524.903C749.961 676.926 710.545 801.79 636.498 896.265C608.599 931.868 569.533 954.825 526.654 961.556C519.144 962.724 512.374 956.965 512.374 949.377V524.669C512.374 517.86 517.899 512.335 524.708 512.335H524.669ZM652.529 950.117C640.272 954.28 630.584 939.027 639.728 929.844C645.447 924.125 650.856 917.977 655.953 911.479C733.541 812.49 774.747 682.374 778.56 524.436C778.716 517.743 784.163 512.335 790.856 512.335H962.257C969.339 512.335 974.942 518.288 974.591 525.37C964.125 723.035 832.335 888.988 652.529 950.078V950.117Z" fill="white"/>
</svg>
